<?xml version="1.0" encoding="UTF-8"?>
<svg id="Layer_1" xmlns="http://www.w3.org/2000/svg" version="1.1" viewBox="0 0 283.46 283.46">
  <!-- Generator: Adobe Illustrator 29.1.0, SVG Export Plug-In . SVG Version: 2.1.0 Build 142)  -->
  <defs>
    <style>
      .st0 {
        fill: #a8aaab;
      }

      .st1 {
        fill: #eb2127;
      }

      .st2 {
        fill: #414142;
      }

      .st3 {
        fill: #b2b4b5;
      }

      .st4 {
        fill: #fed307;
      }

      .st5 {
        fill: #e05c5d;
      }
    </style>
  </defs>
  <g>
    <path class="st2" d="M10.6,242.44c5.84,0,10.6-4.75,10.6-10.6v-7.84h-2.68v7.84c0,4.36-3.55,7.91-7.92,7.91s-7.92-3.55-7.92-7.91v-7.84H0v7.84c0,5.84,4.75,10.6,10.6,10.6Z"/>
    <path class="st2" d="M283.46,231.96c0-5.8-4.72-10.51-10.51-10.51h-9.17v2.68h9.17c4.32,0,7.83,3.51,7.83,7.83s-3.51,7.83-7.83,7.83h-9.17v2.68h9.17c5.8,0,10.51-4.72,10.51-10.51Z"/>
    <path class="st2" d="M233.58,246.91v2.68h7.49c5.4,0,9.79-4.39,9.79-9.79v-10.52h-2.68v10.52c0,3.92-3.19,7.11-7.11,7.11h-7.49Z"/>
    <path class="st2" d="M206.49,239.87c-2.74,0-4.98-2.23-4.98-4.98v-13.49h-2.68v13.49c0,4.22,3.43,7.66,7.66,7.66h28.27c4.22,0,7.66-3.44,7.66-7.66v-5.62h-2.68v5.62c0,2.74-2.23,4.98-4.98,4.98h-28.27Z"/>
    <path class="st2" d="M95.88,234.9c0,2.74-2.23,4.98-4.98,4.98h-21.12c-2.74,0-4.98-2.23-4.98-4.98v-13.37h-2.68v13.37c0,4.22,3.44,7.66,7.66,7.66h21.12c4.22,0,7.66-3.44,7.66-7.66v-5.62h-2.68v5.62Z"/>
    <path class="st2" d="M31.18,242.55h21.12c4.22,0,7.66-3.44,7.66-7.66v-5.62h-2.68v5.62c0,2.74-2.23,4.98-4.98,4.98h-21.12c-2.74,0-4.98-2.23-4.98-4.98v-13.37h-2.68v13.37c0,4.22,3.43,7.66,7.66,7.66Z"/>
    <path class="st2" d="M185.5,234.9v-5.62h-2.68v5.62c0,2.74-2.23,4.98-4.98,4.98h-23.8c-2.74,0-4.98-2.23-4.98-4.98v-2.49h-.02c0-.15.02-.3.02-.45,0-5.8-4.72-10.51-10.51-10.51h-9.17v2.68h9.17c4.32,0,7.83,3.51,7.83,7.83s-3.51,7.83-7.83,7.83h-9.17v2.68h9.17c3.51,0,6.62-1.74,8.53-4.4,1.21,2.64,3.87,4.48,6.96,4.48h23.8c4.22,0,7.66-3.44,7.66-7.66Z"/>
    <rect class="st2" x="255.66" y="221.41" width="2.68" height="20.99"/>
    <rect class="st2" x="188.17" y="221.41" width="2.68" height="20.99"/>
    <path class="st2" d="M116.34,221.45h-10.68v21.11h10.6c5.84,0,10.6-4.75,10.6-10.6s-4.71-10.51-10.51-10.51ZM116.25,239.87h-7.92v-15.74h8c4.32,0,7.83,3.51,7.83,7.83s-3.55,7.91-7.92,7.91Z"/>
    <rect class="st2" x="9.26" y="223.93" width="2.68" height="10.58"/>
    <rect class="st2" x="211.69" y="246.73" width="17.5" height="2.68"/>
    <rect class="st2" x="156.87" y="246.73" width="14.82" height="2.68"/>
    <rect class="st2" x="70.93" y="229.33" width="17.5" height="2.68"/>
    <rect class="st2" x="38.04" y="246.73" width="7.41" height="2.68"/>
    <path class="st2" d="M132.44,272.68c0,5.78,4.7,10.47,10.47,10.47h9.13v-2.68h-9.13c-4.3,0-7.79-3.5-7.79-7.79s3.5-7.79,7.79-7.79h9.13v-2.68h-9.13c-5.77,0-10.47,4.7-10.47,10.47Z"/>
    <path class="st2" d="M35.85,262.21c-5.77,0-10.47,4.7-10.47,10.47v10.05h2.68v-10.05c0-4.3,3.5-7.79,7.79-7.79s7.79,3.5,7.79,7.79v10.05h2.68v-10.05c0-5.77-4.7-10.47-10.47-10.47Z"/>
    <path class="st2" d="M61.59,273.26c2-.91,3.39-2.93,3.39-5.26,0-3.19-2.6-5.79-5.79-5.79h-9.46v.39h-1.34v20.13h2.68v-17.84h8.12c1.71,0,3.11,1.39,3.11,3.11s-1.39,3.11-3.11,3.11h-3.67c-.1,0-.19-.01-.29-.01h0v2.68h0s.29.01.29.01c4.16.15,7.5,3.58,7.5,7.78v1.17h2.68v-1.17c0-3.38-1.62-6.39-4.12-8.3Z"/>
    <rect class="st2" x="69.34" y="262.61" width="2.68" height="20.13"/>
    <path class="st2" d="M12.27,262.21H1.79v20.95h10.47c5.77,0,10.47-4.7,10.47-10.47s-4.7-10.47-10.47-10.47ZM12.27,280.48h-7.79v-15.58h7.79c4.3,0,7.79,3.5,7.79,7.79s-3.5,7.79-7.79,7.79Z"/>
    <path class="st2" d="M120.35,262.21h-10.47v20.95h10.47c5.78,0,10.47-4.7,10.47-10.47s-4.7-10.47-10.47-10.47ZM120.35,280.48h-7.79v-15.58h7.79c4.3,0,7.79,3.5,7.79,7.79s-3.5,7.79-7.79,7.79Z"/>
    <path class="st2" d="M238.27,268.27c0-3.34-2.72-6.06-6.05-6.06h-10.78v20.94h10.78c1.61,0,3.13-.63,4.29-1.77,1.14-1.15,1.76-2.67,1.76-4.28,0-1.7-.72-3.29-1.91-4.41.05-.04.1-.09.14-.14,1.14-1.14,1.77-2.66,1.77-4.28ZM233.57,271.34h-5.94v2.68h5.94c1.2.54,2.01,1.74,2.01,3.08,0,.9-.35,1.75-.98,2.38-.65.64-1.5.99-2.39.99h-8.1v-15.58h8.1c1.86,0,3.37,1.52,3.37,3.38,0,.9-.35,1.74-.98,2.38-.31.31-.66.53-1.03.69Z"/>
    <rect class="st2" x="104.01" y="262.61" width="2.68" height="20.13"/>
    <polygon class="st2" points="170.71 271.34 158.41 271.34 158.41 262.61 155.73 262.61 155.73 282.74 158.41 282.74 158.41 274.03 170.71 274.03 170.71 282.74 173.4 282.74 173.4 262.61 170.71 262.61 170.71 271.34"/>
    <rect class="st2" x="138.19" y="271.34" width="13.44" height="2.68"/>
    <path class="st2" d="M85.68,262.21c-5.78,0-10.47,4.7-10.47,10.47v10.05h2.68v-10.05c0-4.3,3.5-7.79,7.79-7.79s7.79,3.5,7.79,7.79v10.05h2.68v-10.05c0-5.77-4.7-10.47-10.47-10.47Z"/>
    <rect class="st2" x="78.96" y="271.34" width="13.44" height="2.68"/>
    <path class="st2" d="M207.89,262.21c-5.77,0-10.47,4.7-10.47,10.47v10.05h2.68v-10.05c0-4.3,3.5-7.79,7.79-7.79s7.79,3.5,7.79,7.79v10.05h2.68v-10.05c0-5.77-4.7-10.47-10.47-10.47Z"/>
    <rect class="st2" x="201.17" y="271.34" width="13.44" height="2.68"/>
    <path class="st2" d="M251.47,262.21c-5.78,0-10.47,4.7-10.47,10.47v10.05h2.68v-10.05c0-4.3,3.5-7.79,7.79-7.79s7.79,3.5,7.79,7.79v10.05h2.68v-10.05c0-5.77-4.7-10.47-10.47-10.47Z"/>
    <rect class="st2" x="244.75" y="271.34" width="13.44" height="2.68"/>
    <rect class="st2" x="29.13" y="271.34" width="13.44" height="2.68"/>
    <polygon class="st2" points="180.69 264.89 187.44 264.89 187.44 282.74 190.12 282.74 190.12 264.89 196.87 264.89 196.87 262.21 180.69 262.21 180.69 264.89"/>
    <polygon class="st2" points="278.99 276.67 264.91 261.64 264.91 282.74 267.6 282.74 267.6 268.43 281.67 283.46 281.67 262.61 278.99 262.61 278.99 276.67"/>
  </g>
  <g>
    <path class="st2" d="M230.61,99.21c.4-1.12.78-2.25.94-3.45.51-3.76-.74-6.77-3.81-9.01-1.15-.84-2.43-1.41-3.73-1.95-.03-.01-.09.01-.13.02-.15-.07-.3-.14-.45-.2-2.88-1.02-5.86-1.51-8.88-1.8-3.65-.35-7.32-.48-10.98-.68-4.37-.23-8.74-.59-13.03-1.54-3.95-.87-7.71-2.22-11.16-4.37-4.88-3.04-8.45-7.27-11.35-12.17-2.42-4.11-3.22-8.47-2.63-13.15.47-3.69,1.48-7.23,2.78-10.7,1.46-3.92,3.2-7.72,4.82-11.58.72-1.72,1.36-3.47,1.78-5.29.01-.04.03-.08.04-.11.01-.06.02-.11.03-.17.05-.06.09-.12.06-.2l.03-.17c.05-.06.09-.12.06-.2.04-.18.08-.35.11-.53.07-.05.09-.11.04-.18.08-.39.16-.79.24-1.18.07-.12.1-.25.06-.38,0-.05.02-.11.03-.16.06-.09.08-.19.04-.3.02-.11.04-.23.06-.34.05-.06.07-.13.03-.2.02-.11.03-.23.05-.34.07-.12.12-.24.05-.38,0-.08.02-.17.03-.25.09-.11.11-.23.04-.36.02-.14.03-.27.05-.41.08-.29.11-.58.08-.88,0-.12.01-.23.02-.35.08-.18.12-.36.04-.55.01-.24.03-.49.04-.73.11-.21.06-.44.06-.67.02-1.52.01-1.53,1.24-2.43,1.57-1.15,3.28-1.95,5.24-2.07,2.31-.14,4.29.69,6.08,2.08,1,.78,1.83,1.71,2.63,2.67,1.16,2.82,1.29,5.73.81,8.7-.56,3.5-1.35,6.95-1.98,10.44-.63,3.49-1.15,7-1.03,10.56.08,2.64.53,5.21,1.64,7.63,1.36,2.95,3.65,5.02,6.37,6.67,2.84,1.72,5.89,2.96,9,4.08,4.26,1.53,8.6,2.85,12.84,4.43,3.4,1.27,6.72,2.69,9.77,4.69,3.04,2.01,5.59,4.47,7.09,7.85,2.92,6.63,1.76,13.29-3.72,18.42-.45.42-.91.85-1.45,1.17Z"/>
    <path class="st3" d="M82.89,152.19c-.36-1.53-.73-3.06-.76-4.63-.02-1.03.15-2.04.36-3.05.69-3.31,1.76-6.51,2.73-9.74.74-2.46,1.46-4.93,1.93-7.46.34-1.81.6-3.63.7-5.48.13-2.32-.07-4.59-.8-6.8-.94-2.83-2.73-5.03-5.13-6.75-2-1.43-4.2-2.45-6.5-3.3-3.23-1.2-6.56-2.02-9.88-2.89-2.96-.77-5.91-1.57-8.71-2.82-2.06-.92-4.01-2.01-5.64-3.59-2.04-1.97-3.19-4.4-3.75-7.16-.36-1.78-.46-3.58-.33-5.37.19-2.6,1-5.03,2.36-7.27,1.3-2.15,2.98-3.96,5-5.46.19-.14.36-.33.63-.33-.09.3-.34.49-.51.73-1.01,1.51-1.55,3.11-.93,4.93.55,1.58,1.71,2.66,3.03,3.58,2.54,1.78,5.43,2.75,8.4,3.54.16.04.3.01.44-.02.04.15.17.15.29.18,1.09.27,2.18.5,3.28.71,4.67.9,9.38,1.56,14.06,2.43,4.78.89,9.51,1.97,13.99,3.92,2.77,1.21,5.34,2.73,7.61,4.72,3.13,2.74,5.33,6.12,6.7,10.05.71,2.04,1.26,4.11,1.37,6.27.14,2.72-.2,5.4-.88,8.04-.74,2.85-1.83,5.57-2.99,8.28-1.49,3.47-3.24,6.81-5.05,10.12-1.05,1.92-2.13,3.84-2.99,5.87-1.06,2.49-1.69,5.11-2.17,7.76-.14.79-.34,1.59-.29,2.41-.62.67-1.36,1.2-2.11,1.7-3.06,2.05-6.19,2.11-9.36.29-1.47-.84-2.72-1.96-3.81-3.25-.05-.06-.06-.36-.29-.15Z"/>
    <path class="st1" d="M82.89,152.19c.22-.21.23.08.29.15,1.09,1.3,2.34,2.41,3.81,3.25,3.18,1.81,6.31,1.75,9.36-.29.75-.5,1.49-1.03,2.11-1.7.09-.08.19-.14.28-.23,1.47-1.44,2.72-3.05,3.79-4.81,2.55-4.19,4.68-8.6,6.94-12.94,1.49-2.85,3.07-5.65,4.98-8.24,3.1-4.19,6.95-7.42,11.9-9.22,4.07-1.48,8.28-1.79,12.58-1.66,4.18.13,7.86,1.56,11.28,3.84,3.24,2.15,6.05,4.8,8.73,7.59,3.26,3.41,6.25,7.05,9.22,10.71,2.36,2.91,4.78,5.77,7.64,8.21,1.1.94,2.2,1.89,3.41,2.71.6,2.46.96,4.95.34,7.46-.71,2.89-2.64,4.49-5.5,5.08-1.27.26-2.56.27-3.84.11-.27-.07-.53-.13-.8-.2,0,0-.01,0-.01,0,0-.05-.04-.08-.09-.07,0,0,0,0,0,0,0-.06-.04-.08-.1-.08h0c-.02-.08-.08-.11-.16-.11,0,0-.01,0-.01,0-.03-.02-.06-.05-.09-.07,0,0,0,0,0,0,0-.06-.04-.08-.1-.08h0c-.02-.08-.07-.11-.16-.11h-.01c-.02-.12-.08-.17-.2-.16h0c0-.06-.04-.08-.1-.08,0,0,0,0,0,0-.02-.09-.07-.12-.16-.11h0c-.01-.12-.08-.17-.2-.16,0,0,0,0,0,0-.02-.08-.07-.12-.16-.11h0s-.06-.06-.1-.08c-1.93-1.52-3.77-3.14-5.62-4.76-3.63-3.17-7.27-6.33-11.34-8.95-2.39-1.54-4.88-2.87-7.64-3.64-3.99-1.12-7.7-.44-11.21,1.68-2.56,1.55-4.8,3.5-6.92,5.58-2.77,2.71-5.5,5.48-8.27,8.19-2.5,2.45-5.24,4.6-8.38,6.2-3.1,1.57-6.36,2.33-9.85,1.82-5.98-.89-10.56-3.87-13.56-9.18-.98-1.73-1.65-3.57-2.09-5.5Z"/>
    <path class="st3" d="M191.27,14.56c-.81-.96-1.64-1.9-2.63-2.67-1.79-1.39-3.77-2.22-6.08-2.08-1.97.12-3.68.92-5.24,2.07-1.23.9-1.22.91-1.24,2.43,0,.22.05.45-.06.67-.13-.61.02-1.24-.09-1.94-.51.53-1.01.95-1.47,1.44-1.38,1.47-2.65,3.03-3.78,4.7-2.44,3.59-4.48,7.4-6.76,11.08-2.46,3.97-5.12,7.79-8.6,10.97-1.74,1.59-3.62,2.98-5.71,4.07-3.81,2-7.91,2.87-12.18,3.05-1.89.08-3.79,0-5.67-.2-3.32-.36-6.26-1.68-8.98-3.55-2.34-1.61-4.43-3.51-6.36-5.6-1.21-1.31-2.4-2.65-3.52-4.04-2.14-2.65-4.18-5.38-6.18-8.13-2.04-2.8-4.26-5.43-6.88-7.71-.47-.4-.91-.84-1.44-1.16-.05-.12-.12-.24-.15-.37-.39-1.75-.74-3.51-.59-5.32.26-3.19,1.82-5.43,4.74-6.73,1.43-.63,2.94-.89,4.48-1,2.87,1.79,5.31,4.11,7.79,6.37,2.55,2.32,5.08,4.67,7.84,6.75,2.55,1.92,5.22,3.64,8.28,4.65,1.74.57,3.52.87,5.36.76,1.82-.11,3.53-.66,5.17-1.44,2.49-1.19,4.71-2.79,6.84-4.52,2.58-2.1,5.02-4.37,7.51-6.58,2.49-2.21,4.99-4.4,7.75-6.29,2.4-1.64,4.94-3.01,7.78-3.74,3.58-.92,7.04-.53,10.42.92,3.63,1.56,6.26,4.18,8.03,7.69.81,1.62,1.37,3.32,1.69,5.11.02.12.04.24-.02.35Z"/>
    <path class="st4" d="M106.85,4.53c-1.54.11-3.05.37-4.48,1-2.92,1.3-4.48,3.55-4.74,6.73-.15,1.82.2,3.57.59,5.32.03.13.1.25.15.37.07.26.13.53.21.79.82,2.68,2,5.2,3.27,7.68,1.99,3.9,4.21,7.67,6.11,11.62,2.04,4.24,3.76,8.6,4.38,13.31.33,2.53.31,5.05-.12,7.56-.71,4.11-2.4,7.81-4.63,11.31-2.15,3.4-5.12,5.73-8.81,7.21-3.91,1.56-8.02,2.3-12.18,2.8-3.96.48-7.93.7-11.91.94-3.13.19-6.2.69-9.18,1.65-.15.04-.29.06-.44.02-2.97-.78-5.86-1.75-8.4-3.54-1.32-.92-2.48-2-3.03-3.58-.63-1.81-.08-3.41.93-4.93.17-.25.42-.43.51-.73h0c.08,0,.1-.06.09-.13,1.64-1.29,3.56-1.97,5.51-2.6,3.6-1.17,7.28-2.05,10.9-3.18,2.92-.91,5.82-1.9,8.51-3.38,2.24-1.23,4.26-2.72,5.8-4.8,1.4-1.9,2.08-4.04,2.3-6.37.33-3.49-.17-6.92-.76-10.34-.78-4.51-1.87-8.95-2.55-13.48-.52-3.47-.77-6.95-.24-10.45,1-6.53,5.79-11.4,12.32-12.43,3.35-.53,6.57.08,9.66,1.45.08.04.15.1.23.15Z"/>
    <path class="st3" d="M227.74,86.75c-1.15-.84-2.43-1.41-3.73-1.95-.03-.01-.09.01-.13.02,0,.18-.14.16-.25.19-2.46.75-4.98,1.26-7.53,1.55-1.75.2-3.5.32-5.25.24-2.04-.09-4.07-.27-6.1-.41-.93-.06-1.87-.13-2.8-.19-3.51-.21-7.01-.38-10.53-.27-3.38.1-6.72.48-9.96,1.49-2.72.85-5.21,2.15-7.19,4.26-3.03,3.22-5.44,6.84-6.81,11.08-.61,1.88-.94,3.8-1.07,5.78-.23,3.43.24,6.78,1.06,10.1.89,3.61,2.21,7.07,3.69,10.47,1.89,4.36,3.97,8.64,5.74,13.04.93,2.32,1.72,4.69,2.32,7.11.03.1.02.21.03.32.6,2.46.96,4.95.34,7.46-.71,2.89-2.64,4.49-5.5,5.08-1.27.26-2.56.27-3.84.11-.27-.07-.53-.13-.8-.2,2.01,1.64,4.31,2.64,6.81,3.23.09.1.21.11.33.14.83.21,1.67.24,2.51.32,1.3.12,2.59.13,3.88-.09,2.13-.37,4.03-1.25,5.73-2.58,1.95-1.53,3.35-3.44,4.15-5.78.62-1.81.92-3.68,1.05-5.6.16-2.42.06-4.84-.14-7.25-.16-1.93-.4-3.84-.69-5.76-.36-2.36-.7-4.72-1.05-7.08-.38-2.56-.74-5.12-.84-7.7-.09-2.12-.09-4.24.26-6.34.25-1.48.62-2.93,1.34-4.27,1.24-2.3,3.15-3.88,5.42-5.08,2.44-1.3,5.07-2.05,7.76-2.62,2.13-.45,4.28-.78,6.44-1.03,1.81-.21,3.62-.47,5.43-.69,1.86-.23,3.72-.47,5.55-.86,1.65-.35,3.25-.83,4.68-1.78.91-.6,1.76-1.26,2.57-1.99.4-1.12.78-2.25.94-3.45.51-3.76-.74-6.77-3.81-9.01Z"/>
    <path class="st5" d="M168.03,160.96c.12,0,.19.04.2.16-.1,0-.17-.06-.2-.16Z"/>
    <path class="st5" d="M168.49,161.31c.11,0,.18.04.2.16-.1,0-.17-.05-.2-.16Z"/>
    <path class="st5" d="M167.87,160.84c.08,0,.14.03.16.11-.08,0-.13-.04-.16-.11Z"/>
    <path class="st5" d="M168.23,161.12c.09,0,.14.03.16.11-.08,0-.13-.04-.16-.11Z"/>
    <path class="st5" d="M168.7,161.48c.08,0,.13.03.16.11-.08,0-.13-.04-.16-.11Z"/>
    <path class="st5" d="M169.06,161.75c.08,0,.14.03.16.11-.08,0-.13-.04-.16-.11Z"/>
    <path class="st5" d="M167.77,160.76s.06.05.1.08l-.1-.08Z"/>
    <path class="st5" d="M168.39,161.23c.06,0,.09.02.1.08-.06,0-.09-.02-.1-.08Z"/>
    <path class="st5" d="M168.85,161.59c.06,0,.09.02.1.08-.06,0-.09-.02-.1-.08Z"/>
    <path class="st5" d="M168.95,161.67s.06.05.09.07c-.05,0-.08-.02-.09-.07Z"/>
    <path class="st5" d="M169.22,161.86c.06,0,.09.02.1.08-.06,0-.09-.02-.1-.08Z"/>
    <path class="st5" d="M169.32,161.94c.05,0,.09.02.09.07-.03-.02-.06-.05-.09-.07Z"/>
    <path class="st0" d="M55.17,69.96c.01.07-.01.12-.09.13.03-.04.06-.09.09-.13Z"/>
    <path class="st0" d="M175.83,17.48c-.02-.3-.14-.6.08-.88.03.3,0,.59-.08.88Z"/>
    <path class="st0" d="M175.94,16.25c-.1-.19-.09-.37.04-.55.08.19.04.37-.04.55Z"/>
    <path class="st0" d="M175.74,18.25c-.09-.13-.06-.25.04-.36.06.13.05.25-.04.36Z"/>
    <path class="st0" d="M175.66,18.89c-.1-.14-.07-.27.05-.38.06.14.02.26-.05.38Z"/>
    <path class="st0" d="M175.39,20.62c-.08-.14-.08-.28.06-.38.03.14,0,.26-.06.38Z"/>
    <path class="st0" d="M175.48,20.07c-.1-.11-.07-.21.04-.3.04.11.02.2-.04.3Z"/>
    <path class="st0" d="M175.58,19.43c-.09-.08-.05-.15.03-.2.04.08.02.14-.03.2Z"/>
    <path class="st0" d="M175.12,21.98c-.07-.08-.03-.13.04-.18.05.07.03.13-.04.18Z"/>
    <path class="st0" d="M174.86,23.07c-.06-.09-.05-.16.06-.2.02.08-.02.14-.06.2Z"/>
    <path class="st0" d="M174.95,22.71c-.07-.09-.05-.16.06-.2.03.08,0,.14-.06.2Z"/>
    <path class="st0" d="M174.78,23.36c-.02-.05,0-.09.04-.11-.01.04-.03.08-.04.11Z"/>
    <circle class="st2" cx="211.91" cy="42.82" r="10.63"/>
    <circle class="st4" cx="61.83" cy="42.82" r="10.63"/>
    <circle class="st1" cx="137.57" cy="165.8" r="10.63"/>
    <path class="st2" d="M128.36,73.85h-10.47v20.95h10.47c5.77,0,10.47-4.7,10.47-10.47s-4.7-10.47-10.47-10.47ZM128.36,92.12h-7.79v-15.58h7.79c4.3,0,7.79,3.5,7.79,7.79s-3.5,7.79-7.79,7.79Z"/>
    <rect class="st2" x="142.06" y="74.26" width="2.68" height="20.13"/>
    <polygon class="st2" points="158.84 94.59 158.84 76.75 165.59 76.75 165.59 74.06 149.41 74.06 149.41 76.75 156.16 76.75 156.16 94.59 158.84 94.59"/>
  </g>
</svg>