<?xml version="1.0" encoding="utf-8"?>
<!-- Generator: Adobe Illustrator 23.0.5, SVG Export Plug-In . SVG Version: 6.00 Build 0)  -->
<svg version="1.1" id="Layer_1" xmlns="http://www.w3.org/2000/svg" xmlns:xlink="http://www.w3.org/1999/xlink" x="0px" y="0px"
	 viewBox="0 0 200 200" style="enable-background:new 0 0 200 200;" xml:space="preserve">
<style type="text/css">
	.st0{fill:#D2D2D4;}
	.st1{fill:#333333;}
	.st2{fill:#EC2027;}
	.st3{fill:#F5CF11;}
</style>
<path class="st0" d="M155.1,18.4c0,0,0.8-6-2.4-11.5s-12.3-10.4-23.9-3.8c-11.7,6.6-16.4,16.6-29.3,19.5C82.4,26.4,70.3-5,55.9,3.1
	c-5.4,3-2.7,9.9-2.7,9.9s8.2,5.9,14.8,17.2c6.6,11.2,22.4,27.2,42,16.2c19.5-11,15-24.9,33.9-35.5C150.6,7,155.1,18.4,155.1,18.4"/>
<path class="st1" d="M186.2,102.5c0,0,5.7-2.3,9-7.8c3.2-5.5,3.1-15.5-8.6-22.1c-11.7-6.6-23-5.6-31.9-15
	c-11.8-12.5,10-38.4-4.5-46.6c-5.4-3-10.1,2.6-10.1,2.6s-1.2,9.9-7.8,21.1c-6.6,11.2-12.9,32.5,6.6,43.5s29.7,0.2,48.5,10.8
	C194,93,186.2,102.5,186.2,102.5"/>
<path class="st0" d="M127.7,170.9c0,0,4.9,3.7,11.4,3.7s15.3-5.2,15.3-18.3c0-13.2-6.6-22.2-2.6-34.5c5.2-16.2,39.1-10.8,39.1-27
	c0-6-7.4-7.2-7.4-7.2s-9.4,4-22.7,4S125.5,97,125.5,119s14.6,25.2,14.6,46.4C140.1,172.8,127.7,170.9,127.7,170.9"/>
<path class="st2" d="M41.8,157.5c0,0-0.8,6,2.4,11.5s12.3,10.4,23.9,3.8c11.7-6.6,16.4-16.6,29.3-19.5c17-3.7,29.1,27.6,43.6,19.5
	c5.4-3,2.7-9.9,2.7-9.9s-8.2-5.9-14.8-17.2c-6.6-11.2-22.4-27.2-42-16.2c-19.5,11-15,24.9-33.9,35.5
	C46.3,168.9,41.8,157.5,41.8,157.5"/>
<path class="st0" d="M10.8,73.4c0,0-5.7,2.3-9,7.8c-3.2,5.5-3.1,15.5,8.6,22.1s23,5.6,31.9,15c11.8,12.5-10,38.4,4.5,46.6
	c5.4,3,10.1-2.6,10.1-2.6s1.2-9.9,7.8-21.1c6.6-11.2,12.9-32.5-6.6-43.5S28.4,97.5,9.6,86.9C2.9,82.9,10.8,73.4,10.8,73.4"/>
<path class="st3" d="M69.2,5c0,0-4.9-3.7-11.4-3.7S42.5,6.5,42.5,19.6c0,13.2,6.6,22.2,2.6,34.5C39.9,70.4,6,65,6,81.2
	c0,6,7.4,7.2,7.4,7.2s9.4-4,22.7-4S71.4,79,71.4,57S56.8,31.8,56.8,10.6C56.8,3.1,69.2,5,69.2,5"/>
<path class="st2" d="M99.5,168.1c2.8,0,14,3.8,14,18c0,14.1-14,13.8-14,13.8s-13.7,0.3-13.7-13.8C85.8,171.9,96.7,168.1,99.5,168.1"
	/>
<path class="st0" d="M136.2,133c0,14.1,4.3,24.5,4.3,32.5c0,7.1-12.4,5.7-12.4,5.7s4.9,3.7,11.4,3.7s14.9-5.2,14.9-18.4
	S136.2,133,136.2,133"/>
<path class="st1" d="M169.7,50.8c-1.4-2.4-3.6-13.7,9-20.8c12.5-7,19.3,4.9,19.3,4.9s7.1,11.4-5.4,18.4
	C179.9,60.4,171.1,53.1,169.7,50.8"/>
<path class="st3" d="M31.9,50.7c1.4-2.4,3.6-13.7-9-20.8c-12.5-7-19.3,4.9-19.3,4.9S-3.5,46.2,9,53.2C21.7,60.3,30.5,53.1,31.9,50.7
	"/>
<path class="st3" d="M67.3,99.8l1.5,0.8h0.5c0.5,0,1.2,0,2,0s1.4,0,1.8,0c4.1,0,7.3-0.2,9.6-0.7c2.3-0.4,4-1.2,5.1-2.2s1.8-2.4,2-4
	s0.4-3.7,0.4-6.1c0-0.2,0-0.6,0-1.1s0-1.1,0-1.7c-0.1-0.6-0.1-1.2-0.1-1.7V82c-0.3-1.3-1-2.3-2-3s-2.3-1.2-3.8-1.5s-3.1-0.5-4.9-0.6
	C77.5,77,75.6,77,73.8,77c-0.3,0-0.7,0-1.3,0c-0.5,0-1.1,0-1.6,0s-1,0-1.4,0s-0.7,0-0.7,0l-1.5,0.8V99.8z M76.2,78.1
	c0.6,0,1.3,0.1,2.1,0.3c0.8,0.2,1.6,0.5,2.4,0.8s1.4,0.7,1.9,1.1s0.8,0.8,0.8,1.2l-0.1,13.7c0,0.5-0.2,0.9-0.5,1.4
	c-0.4,0.5-0.8,0.9-1.4,1.3s-1.3,0.7-2.1,0.9c-0.8,0.2-1.6,0.4-2.5,0.4h-0.7c-0.4,0-0.9,0-1.4-0.1s-0.8-0.3-0.8-0.6V78.8
	c0-0.4,0.3-0.6,0.9-0.6C75.4,78.1,75.9,78.1,76.2,78.1L76.2,78.1z"/>
<path class="st2" d="M100.1,77c-0.3,0-0.6,0-0.9,0s-0.7,0-1,0.1c-0.3,0-0.6,0.1-0.9,0.2c-0.2,0.1-0.4,0.3-0.4,0.5v22
	c0,0.2,0.1,0.4,0.4,0.5c0.2,0.1,0.5,0.2,0.9,0.2c0.3,0,0.7,0.1,1,0.1s0.6,0,0.9,0s0.6,0,0.9,0c0.4,0,0.7,0,1-0.1
	c0.3,0,0.6-0.1,0.8-0.2c0.2-0.1,0.4-0.3,0.4-0.5v-22c0-0.4-0.4-0.6-1.2-0.7C101.3,77,100.6,77,100.1,77"/>
<path class="st1" d="M116.7,79.3v20.6c0,0.2,0.1,0.3,0.4,0.4s0.6,0.2,0.9,0.2c0.4,0,0.7,0.1,1.1,0.1s0.7,0,0.9,0c0.2,0,0.5,0,0.9,0
	s0.8,0,1.1-0.1c0.3,0,0.6-0.1,0.9-0.2s0.4-0.3,0.4-0.4V79.3l0.4-0.2c0.3,0,0.7,0,1.3-0.1c0.6,0,1.3-0.1,2-0.1s1.4-0.1,2-0.1
	c0.6,0,1.1-0.1,1.3-0.1s0.4-0.1,0.7-0.2s0.5-0.2,0.6-0.2c0-0.1,0-0.1,0-0.1l0,0c0,0,0-0.1-0.1-0.2s-0.3-0.3-0.7-0.5
	c-0.3-0.2-0.5-0.3-0.6-0.3h-20.1c-0.1,0-0.2,0.1-0.6,0.3c-0.3,0.2-0.6,0.3-0.7,0.5c-0.1,0.1-0.1,0.2-0.1,0.2s0,0,0.1,0.1
	c0.1,0,0.3,0.1,0.6,0.2c0.4,0.1,0.6,0.2,0.8,0.2c0.2,0,0.6,0.1,1.2,0.1s1.2,0.1,1.8,0.1c0.7,0,1.3,0.1,1.8,0.1s0.9,0.1,1.1,0.1
	L116.7,79.3z"/>
</svg>
